# xmcd
#
# Track frame offsets: 
#        150
#        11059
#        23021
#        33138
#        44670
#        54506
#        65281
#        79885
#        91555
#        100683
#        112831
#        125054
#        134829
#        144721
#        158055
#        170407
#        182119
#        192904
#        205872
#        217086
#        227572
#        238595
#        250504
#        261648
#        275635
#        286151
#        300690
#        310478
#        319546
#        330398
#
# Disc length: 4573 seconds
#
# Revision: 0
# Processed by: cddbd v1.5.2PL0 Copyright (c) Steve Scherf et al.
# Submitted via: ExactAudioCopy v0.95b3
#
DISCID=ac11db1e
DTITLE=The Beatles  - Help!  Deluxe - Disc 1 - stereo  FLAC
DYEAR=1900
DGENRE=
TTITLE0=Help! (stereo)
TTITLE1=The Night Before (stereo)
TTITLE2=You've Got To Hide Your Love Away (stereo)
TTITLE3=I Need You (stereo)
TTITLE4=Another Girl (stereo)
TTITLE5=You're Going To Lose That Girl (stereo)
TTITLE6=Ticket To Ride (stereo)
TTITLE7=Act Naturally (stereo)
TTITLE8=It's Only Love (stereo)
TTITLE9=You Like Me Too Much (stereo)
TTITLE10=Tell Me What You See (stereo)
TTITLE11=I've Just Seen A Face (stereo)
TTITLE12=Yesterday (stereo)
TTITLE13=Dizzy Miss Lizzie (stereo)
TTITLE14=Yes It Is (stereo)
TTITLE15=I'm Down (stereo)
TTITLE16=Bad Boy (stereo)
TTITLE17=If You've Got Trouble (stereo)
TTITLE18=That Means A Lot (stereo)
TTITLE19=Help! - movie mix
TTITLE20=The Night Before - movie mix
TTITLE21=I Need You  - movie mix
TTITLE22=You're Going To Lose That Girl - movie mix
TTITLE23=Ticket To Ride - movie mix
TTITLE24=Help (1993 mix)
TTITLE25=Ticket To Ride (1993 mix)
TTITLE26=You've Got To Hide Your Love Away (anthology)
TTITLE27=Anthology medley
TTITLE28=You're Going To Lose That Girl (anthology)
TTITLE29=If You Got Trouble (anthology)
EXTD=
EXTT0=
EXTT1=
EXTT2=
EXTT3=
EXTT4=
EXTT5=
EXTT6=
EXTT7=
EXTT8=
EXTT9=
EXTT10=
EXTT11=
EXTT12=
EXTT13=
EXTT14=
EXTT15=
EXTT16=
EXTT17=
EXTT18=
EXTT19=
EXTT20=
EXTT21=
EXTT22=
EXTT23=
EXTT24=
EXTT25=
EXTT26=
EXTT27=
EXTT28=
EXTT29=
PLAYORDER=
